<?xml version="1.0" standalone="no"?><!DOCTYPE svg PUBLIC "-//W3C//DTD SVG 1.1//EN" "http://www.w3.org/Graphics/SVG/1.1/DTD/svg11.dtd"><svg t="1573446064636" class="icon" viewBox="0 0 1024 1024" version="1.1" xmlns="http://www.w3.org/2000/svg" p-id="2167" xmlns:xlink="http://www.w3.org/1999/xlink" width="64" height="64"><defs><style type="text/css"></style></defs><path d="M78.5 385.8c-12.1 37-15.3 77.2-15.3 117.5 0 252.6 200.3 456.9 448.1 456.9 247 0 448.1-204.3 448.1-456.9 0-184.2-107-343.5-261.5-415.9-57.1-26.5-109.4-33-120.7-3.2-10.5 30.6 30.6 59.5 60.3 73.2 29.8 13.7 111 52.3 107 128.7-3.2 76.4-122.3 85.3-193.1 55.5-70-29-172.2-72.4-196.3-52.3-24.1 20.1-28.2 70.8 28.2 104.6 57.1 33.8 181.8 102.2 199.5 188.2 17.7 86.1 4.8 258.2-243 185-57.1-16.9-118.3-107-136-146.4-50.7-113.4 9.7-227.7 32.2-261.5 32.2-49.1 32.2-97.3-24.9-118.3-54.6-20-98.8 39.5-132.6 144.9z m0 0" fill="#1296db" p-id="2168"></path><path d="M576.4 166.2c41 16.1 62.7 54.7 48.3 86.1-14.5 31.4-59.5 44.2-100.6 28.2-41-16.1-62.7-54.7-48.3-86.1 14.6-31.4 59.6-44.3 100.6-28.2z m0 0" fill="#1296db" p-id="2169"></path></svg>