<?xml version="1.0" standalone="no"?><!DOCTYPE svg PUBLIC "-//W3C//DTD SVG 1.1//EN" "http://www.w3.org/Graphics/SVG/1.1/DTD/svg11.dtd"><svg t="1574063480463" class="icon" viewBox="0 0 1024 1024" version="1.1" xmlns="http://www.w3.org/2000/svg" p-id="1311" xmlns:xlink="http://www.w3.org/1999/xlink" width="64" height="64"><defs><style type="text/css"></style></defs><path d="M241.534 764.95H188.01c-3.692 0-7.385 1.852-7.385 7.408l-22.149 138.886c0 1.852 1.846 3.704 3.692 3.704h25.842c3.692 0 7.38-1.852 7.38-7.408l7.384-38.888c0-3.705 3.692-7.41 7.384-7.41h18.458c35.066 0 57.216-18.516 62.754-51.848 1.846-14.813 0-25.927-7.384-35.184-9.227-5.556-22.15-9.26-42.452-9.26z m5.538 50c-1.846 20.367-18.456 20.367-33.221 20.367h-9.23l7.383-35.184c0-1.852 1.847-5.552 3.688-5.552h3.692c9.232 0 20.304 0 23.996 7.404 3.692 1.852 5.538 7.409 3.692 12.966z m158.73 0h-25.84c-1.846 0-3.692 1.848-3.692 3.7l-1.846 7.41-1.846-1.853c-7.381-9.256-18.458-11.109-31.376-11.109-29.53 0-53.524 22.219-57.216 53.701-1.846 14.813 0 29.628 9.23 40.74 9.226 9.257 20.303 12.962 33.222 12.962 12.918 0 25.84-3.705 35.067-14.814l-1.846 7.41c0 1.851 1.846 3.7 3.692 3.7h23.995c3.693 0 7.38-1.849 7.38-7.405l12.923-88.89c1.846-3.704 0-5.551-1.846-5.551z m-38.758 51.85c-1.847 14.812-14.765 24.074-29.534 24.074-7.38 0-12.918-1.852-18.457-7.408-3.692-3.706-3.692-11.11-3.692-18.519 1.846-14.813 14.77-24.074 29.533-24.074 7.385 0 12.919 1.853 18.457 7.41 3.693 5.556 7.385 11.108 3.693 18.516z m179.033-51.85h-25.84c-1.847 0-3.693 1.848-7.385 1.848l-35.068 53.706-14.764-51.853c0-1.853-3.692-3.7-7.385-3.7h-25.837c-1.846 0-3.692 1.847-3.692 3.7v1.852l29.529 85.184-25.837 38.889c-1.846 1.852 0 3.704 0 7.408h29.53c1.846 0 3.692-1.852 7.384-1.852l86.746-127.777c-3.692-1.852-5.535-5.557-7.38-7.404z" fill="#253B80" p-id="1312"></path><path d="M632.823 764.95h-55.37c-3.692 0-7.38 1.852-7.38 7.408l-22.15 140.738c0 1.852 1.843 3.7 3.692 3.7h29.53c1.846 0 3.692-1.848 3.692-3.7l7.38-40.74c0-3.704 3.692-7.409 7.385-7.409h18.457c35.067 0 57.216-18.517 62.754-51.849 1.846-14.817 0-25.927-7.384-35.188-9.226-9.256-22.149-12.96-40.606-12.96z m7.384 50c-1.846 20.367-18.456 20.367-33.22 20.367h-9.23l7.383-35.184c0-1.852 1.847-3.704 3.693-3.704h3.687c9.23 0 20.303 0 23.995 7.408 3.692 0 3.692 5.557 3.692 11.114z m155.04 0h-25.842c-1.842 0-3.688 1.848-3.688 3.7l-1.846 7.41-1.846-1.853c-7.384-9.256-18.456-11.109-31.38-11.109-29.528 0-53.524 22.219-57.216 53.701-1.846 14.813 0 29.628 9.23 40.74 9.227 9.257 20.304 12.962 33.222 12.962 12.918 0 25.842-3.705 35.068-14.814l-1.846 7.41c0 1.851 1.846 3.7 3.692 3.7h23.994c3.692 0 7.386-1.849 7.386-7.405l12.918-88.89c3.692-3.704 3.692-5.551-1.846-5.551z m-35.068 51.85c-1.846 14.812-14.764 24.074-29.534 24.074-7.38 0-12.918-1.852-18.456-7.408-3.688-3.706-3.688-11.11-3.688-18.519 1.842-14.813 14.764-24.074 29.53-24.074 7.384 0 12.918 1.853 18.456 7.41 3.692 5.556 3.692 11.108 3.692 18.516z m66.443-98.146l-22.145 142.59c0 1.852 1.846 3.704 3.688 3.704h22.15c3.692 0 7.384-1.852 7.384-7.408l22.148-140.738c0-1.853-1.846-3.705-3.692-3.705H832.16c-3.688 1.852-5.538 3.705-5.538 5.557z" fill="#179BD7" p-id="1313"></path><path d="M426.106 690.878l11.072-68.519H298.75l77.52-503.69c0-1.852 0-1.852 1.846-5.557 0 0 1.846-1.852 5.538-1.852h191.953c64.6 0 107.052 14.813 131.048 40.74 9.226 11.11 16.61 24.074 22.148 38.888 1.842 18.518 1.842 35.183 0 55.554v16.665l11.073 5.556c7.385 5.557 16.61 9.261 22.149 16.667 9.226 11.113 16.61 24.074 18.456 40.739 1.848 18.518 1.848 38.888-1.846 57.406-5.538 24.074-11.072 44.445-23.994 64.815-9.226 16.665-22.15 31.479-38.76 40.74-14.764 9.26-33.222 18.517-49.832 24.074-22.149 5.553-40.606 7.405-60.909 7.405h-22.15c-22.148 0-40.605 16.67-44.297 38.891v7.406L520.236 685.32v5.557s0 1.852-1.846 1.852h-1.846c0-3.704-90.438-1.852-90.438-1.852z" fill="#253B80" p-id="1314"></path><path d="M765.717 248.294c0 5.556-1.846 7.409-1.846 12.96-27.687 138.887-116.279 183.331-230.716 183.331h-59.063c-14.764 0-23.991 9.261-27.683 24.075l-29.533 192.587-7.381 55.558c-1.846 7.404 5.535 14.813 12.92 16.665h107.052c12.918 0 22.148-9.26 23.991-22.222v-5.556l20.303-125.925 1.846-7.405c1.846-12.962 12.922-22.222 23.995-22.222h14.764c101.515 0 177.189-42.593 203.03-161.108 9.226-49.997 5.537-92.59-20.303-120.369-11.072-7.408-18.458-14.813-31.376-20.37z" fill="#179BD7" p-id="1315"></path><path d="M738.03 237.185c-5.539 0-7.385-1.853-12.919-1.853-5.538 0-9.23-1.852-12.922-1.852-16.61-1.852-35.068-5.557-51.678-5.557H505.472c-12.923 0-22.15 9.262-23.995 22.223L450.1 463.103v5.557c1.846-14.814 14.765-24.075 27.683-24.075h59.063c114.433 0 204.876-46.292 230.716-183.33 0-5.552 1.842-7.405 1.842-12.961-7.38-1.852-14.764-7.409-22.144-9.257l-9.23-1.852c0 1.852 0 0 0 0z" fill="#222D65" p-id="1316"></path><path d="M481.477 251.998c1.846-12.96 12.918-22.223 23.995-22.223h155.039c16.61 0 35.067 0 51.678 5.557 5.538 0 9.23 1.853 12.922 1.853 5.534 0 7.38 1.852 12.92 1.852l5.538 1.848c7.38 1.852 14.764 5.557 22.148 9.261 7.38-49.997 0-85.185-27.687-114.812-29.53-35.183-84.904-50.001-153.193-50.001H385.5c-14.764 0-23.995 9.26-27.687 24.075l-81.211 529.616c-1.843 9.261 5.538 16.671 14.768 20.371h125.506l31.379-196.292c1.846 0 33.222-211.105 33.222-211.105z" fill="#253B80" p-id="1317"></path></svg>