<?xml version="1.0" standalone="no"?><!DOCTYPE svg PUBLIC "-//W3C//DTD SVG 1.1//EN" "http://www.w3.org/Graphics/SVG/1.1/DTD/svg11.dtd"><svg t="1573446096215" class="icon" viewBox="0 0 1025 1024" version="1.1" xmlns="http://www.w3.org/2000/svg" p-id="2702" xmlns:xlink="http://www.w3.org/1999/xlink" width="64.0625" height="64"><defs><style type="text/css"></style></defs><path d="M373.029 631.954c-4.389 2.926-10.24 4.389-16.092 4.389-13.166 0-23.406-7.314-29.257-17.554l-2.926-4.389-93.623-204.8c-1.462-2.926-1.462-4.389-1.462-7.314 0-8.777 7.314-17.555 17.554-17.555 4.388 0 7.314 1.463 10.24 2.926l109.714 78.994c7.314 5.852 17.554 8.778 27.794 8.778 5.852 0 11.703-1.463 17.555-2.926L930.377 241.37C836.754 131.657 684.617 59.977 512 59.977c-282.331 0-512 191.634-512 427.154C0 615.863 68.754 731.43 177.006 808.96c8.777 5.851 14.628 16.091 14.628 27.794 0 4.389-1.463 7.315-1.463 10.24-8.777 32.183-21.942 83.383-23.405 86.309-1.463 4.388-2.926 8.777-2.926 13.166 0 8.777 7.314 17.554 17.554 17.554 4.389 0 7.315-1.463 10.24-2.926l112.64-64.366c8.777-4.388 17.555-7.314 27.795-7.314 5.851 0 10.24 1.463 14.628 2.926 52.663 14.628 108.252 23.406 166.766 23.406 282.331 0 512-191.635 512-427.155 0-71.68-20.48-138.971-58.514-197.485l-590.995 337.92-2.925 2.925z" fill="#58b530" p-id="2703"></path></svg>