<?xml version="1.0" standalone="no"?><!DOCTYPE svg PUBLIC "-//W3C//DTD SVG 1.1//EN" "http://www.w3.org/Graphics/SVG/1.1/DTD/svg11.dtd"><svg t="1573446083646" class="icon" viewBox="0 0 1024 1024" version="1.1" xmlns="http://www.w3.org/2000/svg" p-id="2441" xmlns:xlink="http://www.w3.org/1999/xlink" width="64" height="64"><defs><style type="text/css"></style></defs><path d="M608.62919111 580.44871111l3.34961778-11.06830222L565.15697778 569.38040889 558.38492445 591.88110222c0 0 9.02940445-8.22840889 24.61240888-10.92266667C586.49258667 580.23025778 608.62919111 580.44871111 608.62919111 580.44871111z" fill="#d81e06" p-id="2442"></path><path d="M673.72828445 671.61656889L697.68533333 671.61656889 704.60302222 648.60615111 680.71879111 648.60615111Z" fill="#d81e06" p-id="2443"></path><path d="M774.21681778 491.75665778c3.64088889 0 9.8304-2.33016889 12.45184-5.97105778 1.60199111-2.11171555 2.83989333-5.60696889 4.00497777-8.95658667 0.94663111-3.85934222 2.03889778-7.71868445 2.9855289-11.57802666 0.29127111-1.23790222 0.43690667-2.03889778 0.72817777-3.20398222 2.11171555-12.81592889-0.72817778-21.11715555-8.00995555-21.11715556-10.19448889 0-14.12664889 12.45184-17.54908445 27.01539556-1.16508445 5.24288-2.11171555 10.04885333-2.03889777 14.56355555C766.93504 491.75665778 773.19736889 491.75665778 774.21681778 491.75665778z" fill="#d81e06" p-id="2444"></path><path d="M599.30851555 609.57582222L602.29404445 600.40078222 555.83630222 600.40078222 552.92359111 609.72145778l40.19541334 0C597.92497778 609.13891555 598.94442667 609.86709333 599.30851555 609.57582222z" fill="#d81e06" p-id="2445"></path><path d="M453.96423111 490.37312c3.64088889 0 6.91768889-2.33016889 9.61194667-6.18951111 3.93216-5.24288 6.84487111-17.62190222 7.50023111-20.82588444C474.57166222 448.28444445 474.06193778 439.03658667 466.1248 439.03658667c-10.12167111 0-14.19946667 12.52465778-17.47626667 27.45230222C447.41063111 471.58613333 446.464 476.31928889 446.53681778 480.97962667 446.68245333 490.37312 452.94478222 490.37312 453.96423111 490.37312z" fill="#d81e06" p-id="2446"></path><path d="M699.36014222 426.22065778c8.44686222-4.15061333 15.07328-12.74311111 17.33063111-22.9376 2.47580445-11.14112-1.01944889-19.80643555-9.61194666-23.08323556-0.58254222 0-22.28224-1.89326222-22.28224-1.89326222l-4.22343112-0.43690667-0.21845333 1.82044445-0.21845333 2.33016889c0-0.14563555-10.55857778 45.72956445-10.55857778 45.72956444l-0.43690666 2.25735111 5.75260444 0C683.77713778 430.00718222 692.29681778 429.78872889 699.36014222 426.22065778z" fill="#d81e06" p-id="2447"></path><path d="M704.82147555 568.72504889l-7.93713777 26.2144c0 0 8.88376889-4.00497778 13.76256-5.31569778 4.95160889-1.31072 12.37902222-1.74762667 12.37902222-1.74762666l5.75260445-19.07825778L704.82147555 568.79786667z" fill="#d81e06" p-id="2448"></path><path d="M684.72376889 635.20768c0 0 9.10222222-4.66033778 13.98101333-6.11669333 4.87879111-1.09226667 12.37902222-2.03889778 12.37902223-2.03889778l5.82542222-19.07825778-24.02986667 0L684.72376889 635.20768z" fill="#d81e06" p-id="2449"></path><path d="M970.60636445 193.13095111l-242.8472889 0-11.57802666 0L456.36721778 193.13095111l-21.11715556 0L201.94190222 193.13095111c-35.60789333 0-71.14296889 29.05429333-79.44419555 64.66218667l-118.47452445 508.55936c-8.30122667 35.53507555 13.76256 64.51655111 49.29763556 64.51655111l233.30816 0 21.18997333 0 259.88664889 0 11.50520889 0 242.77447111 0c35.60789333 0 71.14296889-28.98147555 79.44419555-64.51655111l118.47452445-508.55936C1028.35086222 222.18524445 1006.14144 193.13095111 970.60636445 193.13095111zM799.99431111 430.73536c0.21845333-1.38353778 0.36408889-2.76707555 0.58254222-4.22343111l1.16508445-0.94663111c15.36455111-2.25735111 19.51516445-2.83989333 35.53507555-5.82542223l0.58254222 1.38353778c-2.98552889 12.01493333-5.89824 24.17550222-8.66531555 36.26325334-5.89824 25.34058667-8.08277333 38.30215111-10.34012445 51.55498666l-1.38353777 1.09226667c-15.43736889-0.14563555-19.87925333-0.14563555-34.22435556 0.50972445l-0.94663111-1.16508445c0.50972445-1.96608 1.01944889-4.00497778 1.52917334-5.97105778-5.24288 4.51470222-10.84984889 8.00995555-16.96654223 8.37404445C761.10961778 512 755.42983111 511.19900445 749.09468445 508.57756445c-19.80643555-7.79150222-16.67527111-29.4912-13.90819556-41.36049778 2.69425778-11.79648 7.35459555-24.02986667 17.03936-32.98645334 13.76256-12.52465778 29.78247111-16.01991111 36.62734222-13.39847111C794.46016 423.01667555 797.59132445 426.65756445 799.99431111 430.73536zM637.90193778 406.85112889c0 0 9.8304-46.02083555 9.8304-46.02083556S648.53333333 357.26222222 648.89742222 355.29614222c4.58752 0.58254222 15.58300445 0.72817778 43.25376 0.36408889 0 0 10.55857778-0.14563555 10.63139556-0.14563556 21.62688 0.14563555 40.34104889 0.29127111 49.73454222 13.4712889 3.78652445 5.02442667 5.02442667 11.28675555 5.02442667 17.69472 0 4.80597333-0.72817778 9.75758222-1.74762667 13.90819555-3.85934222 16.67527111-12.45184 30.36501333-24.90368 39.68568889C712.54016 453.74577778 689.02001778 453.74577778 668.19413333 453.74577778l-2.18453333 0c-1.60199111 0.87381333-3.05834667 2.91271111-3.05834667 2.91271111-0.29127111 0.72817778-5.02442667 20.75306667-5.02442666 20.75306666-0.07281778 0-5.67978667 27.30666667-6.69923556 31.89418667C647.14979555 508.86883555 637.17376 508.86883555 613.07107555 509.16010667 614.16334222 504.57258667 637.90193778 406.85112889 637.90193778 406.85112889zM514.98552889 476.97464889c6.33514667-28.03484445 7.79150222-38.73905778 9.61194666-52.93852444L525.76256 423.16231111C540.61738667 421.12341333 544.18545778 420.68650667 560.20536889 417.33688889l1.31072 1.52917333L559.11310222 427.82264889C561.73454222 426.22065778 564.4288 424.61866667 567.12305778 423.16231111c7.57304889-3.71370667 16.01991111-4.80597333 20.60743111-4.80597333 6.99050667 0 14.70919111 1.96608 17.98599111 10.04885333 2.98552889 7.28177778 1.01944889 16.16554667-3.05834667 33.71463111L600.61923555 471.07640889C596.46862222 490.59157333 595.81326222 494.15964445 593.55591111 507.55811555L591.95392 508.7232C579.13799111 508.57756445 574.84174222 508.57756445 559.76846222 509.30574222L559.18592 508.21347555C560.49664 502.53368889 561.88017778 496.92672 563.26371555 491.10129778l1.82044445-7.71868445c2.76707555-12.08775111 5.46133333-26.2144 5.75260445-30.51064888 0.21845333-2.54862222 1.16508445-8.95658667-6.18951112-8.95658667-3.13116445 0-6.33514667 1.52917333-9.61194666 2.98552889-1.82044445 6.48078222-5.46133333 24.53959111-7.28177778 32.84081778-3.64088889 17.40344889-3.78652445 19.29671111-5.46133334 27.96202666L541.12711111 508.7232C527.94709333 508.57756445 523.35957333 508.57756445 508.28629333 509.30574222l-0.72817778-1.23790222C510.10673778 497.72771555 512.58254222 487.24195555 514.98552889 476.97464889zM527.87427555 558.67619555L521.75758222 578.91953778 476.31928889 578.91953778 471.36768 583.14296889C469.32878222 585.18186667 468.52778667 584.30805333 465.76071111 585.83722667 463.21208889 587.07512889 457.82357333 589.69656889 450.76024889 589.69656889l-14.56355556 0L442.09493333 570.25422222l4.44188445 0c3.71370667 0 6.26232889-0.29127111 7.50023111-1.16508444 1.45635555-0.87381333 3.05834667-2.98552889 4.95160889-6.33514667l8.30122667-15.14609778 33.13208888 0L494.52373333 558.67619555 527.87427555 558.67619555zM243.52085333 452.72632889C239.00615111 468.89187555 233.76327111 487.16913778 214.02965333 498.81998222 202.74289778 505.73767111 185.92199111 509.52419555 167.936 509.52419555c-13.90819555 0-38.44778667-2.25735111-47.11310222-17.3306311C118.12864 487.46040889 116.81792 481.85344 116.81792 475.00856889l3.05834667-23.15605334 1.67480888-7.20896 18.85980445-83.59480888c0 0 0.94663111-4.66033778 1.16508445-5.38851556C142.08568889 356.16995555 148.49365333 356.53404445 184.61127111 356.16995555 184.46563555 356.46122667 184.39281778 356.67968 184.32 357.26222222 180.97038222 367.09262222 162.47466667 441.36675555 162.47466667 441.36675555 162.40184889 441.43957333 158.90659555 463.50336 158.90659555 463.50336l0.21845334 3.71370667c1.16508445 10.99548445 7.93713778 16.74808889 19.51516444 16.74808888 7.20896 0 13.39847111-2.18453333 18.78698667-6.62641777C206.74787555 469.91132445 209.51495111 458.11484445 213.30147555 441.58520889c0.07281778 0 17.76753778-81.48309333 18.7141689-85.92497778C234.56426667 356.16995555 242.21013333 356.46122667 268.35171555 356.16995555 268.20608 356.46122667 268.13326222 356.67968 268.06044445 357.26222222 264.78364445 367.31107555 245.70538667 444.49792 245.70538667 444.49792L243.52085333 452.72632889zM348.30563555 462.11982222L346.19392 471.07640889C342.11612445 490.59157333 341.46076445 494.15964445 339.13059555 507.55811555L337.60142222 508.7232C324.85831111 508.57756445 320.34360889 508.57756445 305.41596445 509.30574222L304.76060445 508.21347555C306.14414222 502.53368889 307.52768 496.92672 308.76558222 491.10129778l1.82044445-7.71868445c2.76707555-12.08775111 5.46133333-26.2144 5.82542222-30.51064888C316.70272 450.25052445 317.57653333 443.84256 310.14912 443.84256c-3.13116445 0-6.33514667 1.52917333-9.61194667 2.98552889C298.71672889 453.30887111 295.14865778 471.36768 293.40103111 479.66890667 289.68732445 496.99953778 289.46887111 498.96561778 287.79406222 507.55811555L286.70179555 508.7232C273.52177778 508.57756445 269.00707555 508.57756445 253.71534222 509.30574222L253.05998222 508.06784c2.54862222-10.34012445 5.09724445-20.82588445 7.50023111-31.02037333C266.96817778 448.93980445 268.42453333 438.23559111 270.24497778 424.03612445L271.41006222 423.16231111C286.19207111 421.12341333 289.83296 420.68650667 305.78005333 417.33688889l1.31072 1.52917333L304.68778667 427.82264889C307.38204445 426.22065778 310.00348445 424.61866667 312.77056 423.16231111c7.57304889-3.71370667 15.94709333-4.80597333 20.60743111-4.80597333 6.99050667 0 14.70919111 1.96608 17.84035556 10.04885333C354.27669333 435.68696889 352.31061333 444.57073778 348.30563555 462.11982222zM401.97233778 456.44003555C400.5888 462.55672889 399.05962667 468.60060445 397.67608889 474.71729778c-2.91271111 12.88874667-4.00497778 17.69472-4.66033778 21.11715555-0.72817778 3.2768-0.87381333 5.09724445-1.96608 11.72366222l-0.72817778 0.65536L389.66613333 508.7232c-7.71868445 0-12.74311111-0.14563555-17.54908444 0-4.80597333 0-9.53912889 0.29127111-16.67527111 0.58254222L355.00487111 508.7232 354.56796445 508.06784C356.53404445 500.64042667 357.62631111 498.09180445 358.57294222 495.47036445 359.51957333 492.77610667 360.46620445 490.15466667 362.21383111 482.65443555c2.25735111-9.75758222 3.56807111-16.60245333 4.58752-22.64632888 1.01944889-5.82542222 1.60199111-10.77703111 2.33016889-16.45681778l0.58254222-0.43690667 0.65536-0.58254222C378.01528889 441.43957333 382.89408 440.78421333 387.84568889 439.98321778c5.02442667-0.72817778 10.12167111-1.74762667 17.98599111-3.20398223l0.29127111 0.72817778L406.41422222 438.08995555C404.95786667 444.20664889 403.50151111 450.25052445 401.97233778 456.44003555zM403.64714667 430.22563555C395.20028445 436.12387555 382.45717333 437.43459555 375.32103111 433.21116445 368.11207111 428.91491555 369.13152 420.75932445 377.72401778 414.93390222c8.51968-5.89824 21.11715555-7.20896 28.32611555-2.98552889C413.18627555 416.17180445 412.09400889 424.32739555 403.64714667 430.22563555zM414.93390222 465.54225778C417.77379555 453.74577778 422.28849778 441.36675555 432.04608 432.33735111 445.73582222 419.66705778 463.21208889 418.93888 470.56668445 418.93888c12.16056889 0 23.95704889 2.76707555 30.65628444 11.21393778C505.59203555 435.83260445 509.01447111 445.00764445 504.57258667 464.66844445 503.18904889 470.63950222 499.25688889 484.98460445 490.51875555 494.66936889c-11.21393778 11.94211555-26.2144 15.94709333-40.85077333 15.94709333-5.67978667 0-14.49073778-0.72817778-20.75306667-3.34961777C408.96284445 499.25688889 412.23964445 477.55719111 414.93390222 465.54225778zM484.54769778 699.28732445L447.11936 699.28732445c-2.98552889 0-5.24288-0.43690667-8.51968-1.16508445-3.13116445-0.72817778-4.51470222-2.18453333-5.97105778-4.29624889-1.38353778-2.18453333-3.42243555-4.00497778-2.03889777-8.66531556L441.36675555 649.55278222 422.94385778 649.55278222 429.06055111 629.23662222l18.49571556 0 4.87879111-16.45681777L434.15779555 612.77980445l5.82542223-19.3695289 81.11900444 0L515.05834667 612.77980445 482.65443555 612.77980445 477.63000889 629.23662222l33.20490666 0L504.71822222 649.26151111 471.58613333 649.26151111l-8.00995555 26.79694222C462.55672889 678.97116445 471.36768 679.48088889 474.57166222 679.48088889l16.60245333-2.33016889L484.54769778 699.28732445zM551.46723555 699.28732445l-21.84533333 0c-6.91768889 0-11.94211555-0.14563555-15.51018667-0.43690667-3.34961778-0.29127111-6.91768889 0-9.24785777-1.82044445-2.03889778-1.82044445-5.17006222-4.07779555-5.02442667-6.5536 0.21845333-2.25735111 1.16508445-5.89824 2.54862222-10.99548444l39.68568889-131.65454222 28.32611556 0L566.39488 562.09863111c0 0 8.95658667-7.13614222 15.14609778-9.68476444 6.26232889-2.33016889 20.38897778-4.44188445 20.38897777-4.44188445L647.73233778 547.68071111 632.14933333 599.67260445C629.52789333 608.62919111 626.46954667 614.38179555 624.57628445 617.00323555 622.82865778 619.69749333 620.78976 621.95484445 616.78478222 624.13937778 612.92544 626.17827555 609.35736889 627.41617778 606.08056889 627.78026667 603.09504 627.99872 598.43470222 628.07153778 592.02673778 628.14435555L547.82634667 628.14435555 535.37450667 669.2864c-1.16508445 4.07779555-1.74762667 6.04387555-0.94663112 7.13614222 0.65536 0.94663111 2.11171555 2.11171555 4.22343112 2.11171556l19.44234666-1.89326223L551.46723555 699.28732445zM622.10048 644.30990222C621.00821333 648.16924445 619.98876445 651.15477333 617.07605333 653.70339555 614.01770667 656.25201778 610.37681778 659.09191111 601.85713778 659.09191111l-15.72864 0.58254222-0.14563556 14.12664889c-0.21845333 4.07779555 0.80099555 3.64088889 1.45635556 4.29624889 0.72817778 0.72817778 1.38353778 1.01944889 2.03889777 1.23790222l4.9516089-0.21845333 15.00046222-0.80099555-6.11669334 20.6074311L586.12849778 698.92323555c-12.16056889 0-21.04433778-0.29127111-23.95704889-2.62144-2.91271111-1.82044445-3.34961778-4.15061333-3.20398222-8.08277333L560.05973333 633.02314667l27.52512 0L587.22076445 644.30990222l6.62641777 0c2.25735111 0 3.71370667-0.21845333 4.73315556-0.87381333 0.80099555-0.65536 1.38353778-1.45635555 1.82044444-2.91271111l2.69425778-8.73813333 21.62688 0L622.10048 644.30990222zM718.51121778 699.14168889l-29.4912 0 2.03889777-6.62641778L630.98424889 692.51527111l6.04387556-19.58798222 6.04387555 0 31.45728-104.20224 6.26232889-21.04433778 30.07374222 0-3.13116444 10.63139556c0 0 8.08277333-5.82542222 15.65582222-7.79150222 6.5536-1.67480889 39.17596445-2.47580445 47.69564444-2.62144L771.08565333 547.82634667l32.11264 0 0.29127112 11.94211555c-0.14563555 2.03889778 1.60199111 2.98552889 5.31569777 2.98552889l6.5536 0-5.97105777 19.80643556-17.4034489 0c-15.07328 1.09226667-20.68024889-5.31569778-20.31616-12.59747556l-0.2912711-11.72366222-3.2768 10.48576-10.34012445 0-31.02037333 102.60024889 8.30122666 0-6.48078222 21.18997333-8.30122666 0L718.51121778 699.14168889zM851.54929778 607.90101333L819.29102222 607.90101333l-5.09724444 16.01991112 32.33109333 0-5.31569778 17.62190222-34.95253333 0-6.26232889 7.50023111 14.19946667 0 3.49525333 22.13660444c0.36408889 2.18453333 0.43690667 3.64088889 1.09226667 4.58752 0.72817778 0.80099555 4.95160889 1.23790222 7.50023111 1.23790223l4.22343111 0-6.5536 21.55406222-10.92266667 0c-1.74762667 0-4.22343111-0.14563555-7.64586666-0.29127112-3.2768-0.21845333-5.60696889-2.18453333-7.86432-3.2768-1.96608-0.94663111-4.95160889-3.42243555-5.67978667-7.57304888l-3.42243555-22.13660445-15.87427556 21.77251556c-5.09724445 6.91768889-11.94211555 12.16056889-23.52014222 12.16056889l-22.28224 0 5.82542222-19.29671112 8.51968 0c2.47580445 0 4.66033778-1.01944889 6.18951111-1.74762666 1.67480889-0.72817778 3.13116445-1.52917333 4.73315555-4.00497778l23.15605334-32.69518222-30.58346667 0 5.24288-17.62190222 34.95253333 0 5.02442667-16.01991112-34.58844444 0 5.97105777-19.87925333 96.19228445 0L851.54929778 607.90101333zM872.01109333 546.73408l-1.31072 1.52917333 0.14563556 0L858.39416889 569.52604445c-3.93216 7.28177778-11.21393778 12.67029333-22.86478222 12.7431111l-19.80643556-0.2912711 5.82542222-19.15107556 3.85934222 0c2.03889778 0 3.49525333-0.21845333 4.58752-0.72817778 1.01944889-0.29127111 1.74762667-1.09226667 2.54862223-2.18453333l6.99050667-11.14112 0-0.07281778c9.8304-14.92764445 12.30620445-21.40842667 22.64632888-38.44778667-1.82044445-19.07825778-2.69425778-25.19495111-4.22343111-37.71960888-0.87381333-7.42741333-2.03889778-15.07328-2.91271111-22.6463289-1.89326222-15.43736889-1.52917333-13.25283555-3.34961778-23.01041777l-0.07281778-0.29127111c0.07281778-0.58254222 0.07281778-1.09226667 0.21845334-1.67480889l1.23790222-1.01944889c15.29173333-1.96608 15.72864-2.47580445 32.18545778-5.60696889l1.38353778 1.31072 2.18453333 42.5984c0.07281778 0.87381333 0.07281778 1.45635555 0.14563555 2.40298667 8.81095111-19.58798222 8.44686222-14.19946667 19.29671112-39.24878222l0.07281778 0.21845333c0.07281778-0.21845333 0.07281778-0.50972445 0.14563555-0.65536l1.01944889-1.01944889c14.56355555-1.96608 17.40344889-2.47580445 33.20490666-5.60696889l1.16508445 1.31072C943.88224 419.66705778 880.31232 528.82090667 872.01109333 546.73408z" fill="#d81e06" p-id="2450"></path></svg>