<?xml version="1.0" standalone="no"?><!DOCTYPE svg PUBLIC "-//W3C//DTD SVG 1.1//EN" "http://www.w3.org/Graphics/SVG/1.1/DTD/svg11.dtd"><svg t="1573446090763" class="icon" viewBox="0 0 1024 1024" version="1.1" xmlns="http://www.w3.org/2000/svg" p-id="2575" xmlns:xlink="http://www.w3.org/1999/xlink" width="64" height="64"><defs><style type="text/css"></style></defs><path d="M627.65 648.69615371c-78.85384629 94.60384629-160.33846114 152.44615372-283.84615371 152.44615371-123.57692315 0-205.06153887-76.22307685-194.53846201-168.23076855 5.26153887-60.43846113 47.31923057-160.33846114 228.66923145-144.55384629 94.63846114 7.85769258 139.32692315 26.27307685 218.18076854 52.5461537 21.01153887-36.79615371 36.79615371-78.85384629 49.95-120.91153886H299.08076943v-34.16538427h170.86153799V325.42307685H262.28461572v-39.46153798h207.6576917V196.61923057s2.63076943-13.15384629 18.41538516-13.1538463h86.71153799V285.96153886h220.81153886v36.79615372h-223.44230829v60.43846113h181.38461571a641.76923057 641.76923057 0 0 1-73.59230742 184.01538515c44.65384628 15.75 226.03846114 70.96153886 278.61923057 86.74615372V193.95384629c0-73.59230742-60.47307685-131.43461573-131.43461573-131.43461572h-633.46153798C120.36153887 62.51923057 62.51923057 122.99230742 62.51923057 193.95384629v636.09230743c0 73.59230742 60.47307685 131.43461573 131.43461572 131.43461571h636.09230743c73.59230742 0 131.43461573-60.43846113 131.43461571-131.43461571v-31.5c-44.68846113-21.04615371-244.45384629-107.79230742-333.83076943-149.88461485z" fill="#1296db" p-id="2576"></path><path d="M141.154462 640.590769c-8.979692 38.872615 14.966154 131.584 164.470153 131.584 89.718154 0 179.475692-56.792615 251.234462-149.504-101.691077-50.845538-185.422769-74.791385-281.127385-74.791384-83.731692 2.993231-125.636923 53.838769-134.57723 92.711384z" fill="#1296db" p-id="2577"></path></svg>