<?xml version="1.0" standalone="no"?><!DOCTYPE svg PUBLIC "-//W3C//DTD SVG 1.1//EN" "http://www.w3.org/Graphics/SVG/1.1/DTD/svg11.dtd"><svg t="1574321618882" class="icon" viewBox="0 0 1084 1024" version="1.1" xmlns="http://www.w3.org/2000/svg" p-id="4257" xmlns:xlink="http://www.w3.org/1999/xlink" width="67.75" height="64"><defs><style type="text/css"></style></defs><path d="M503.648683 395.723965m-244.115433 0a244.115433 244.115433 0 1 0 488.230865 0 244.115433 244.115433 0 1 0-488.230865 0Z" fill="#E9EAEB" p-id="4258"></path><path d="M362.318695 331.483061h25.696361v77.089085h-25.696361z" fill="#BCC0C4" p-id="4259"></path><path d="M336.622334 357.179423h77.089084v25.696361h-77.089084zM889.094103 447.116688h25.696361v77.089084h-25.696361z" fill="#BCC0C4" p-id="4260"></path><path d="M863.397742 472.813049h77.089084v25.696361h-77.089084z" fill="#BCC0C4" p-id="4261"></path><path d="M259.53325 832.562108h269.811794c37.259724 0 170.880803-39.82936 185.013802-50.107905 14.132999-10.278545 100.215809-109.209536 122.057716-138.760351-5.139272-14.132999-26.981179-26.981179-56.531995-24.411543-33.40527 3.854454-75.804266 68.095358-78.373902 69.380175l-104.070263 23.126726c-3.854454-1.284818-39.82936-12.848181-74.519448-21.841908-11.563363-2.569636-32.120452-29.550816-32.120452-32.120451 0-12.848181 5.139272-12.848181 25.696361-23.126726 14.132999-7.708908 59.101631-15.417817 74.519448-51.392722 14.132999-32.120452 5.139272-64.240903-52.677541-41.114178-24.411543 8.993726-127.196989 38.544542-170.880803 56.531995-16.702635 16.702635-41.114178 51.392723-59.101631 64.240903h-50.107904v169.595985z" fill="#FFFFFF" p-id="4262"></path><path d="M529.345044 845.410289h-282.659975v-192.722711h57.816813c8.993726-7.708908 19.272271-20.557089 29.550816-32.120451 8.993726-10.278545 17.987453-21.841907 25.696361-28.265998l1.284818-1.284818 2.569636-1.284818c26.981179-10.278545 74.519448-25.696361 111.779172-37.259724 26.981179-8.993726 50.107905-15.417817 59.101631-19.272271 30.835634-12.848181 53.962359-11.563363 66.81054 1.284818 11.563363 12.848181 12.848181 33.40527 2.569636 56.531995-14.132999 33.40527-48.823087 44.968632-69.380176 52.677541-5.139272 1.284818-8.993726 3.854454-11.563362 3.854454-3.854454 2.569636-7.708908 3.854454-10.278545 5.139272-3.854454 1.284818-6.42409 3.854454-8.993726 5.139273 5.139272 7.708908 16.702635 20.557089 21.841907 21.841907 24.411543 6.42409 50.107905 14.132999 64.240903 17.987453 3.854454 1.284818 6.42409 1.284818 7.708909 2.569636l95.076537-21.841907c32.120452-43.683814 60.386449-68.095358 83.513174-70.664994 35.974906-3.854454 61.671267 12.848181 69.380176 32.120452l2.569636 6.42409-3.854454 6.42409c-20.557089 28.265997-109.209536 129.766625-124.627353 141.329988-15.417817 11.563363-151.608532 51.392723-190.153074 51.392723z m-256.963614-25.696362h256.963614c35.974906 0 164.456713-38.544542 177.304893-47.538268 11.563363-7.708908 86.082811-92.506901 114.348808-128.481807-6.42409-6.42409-20.557089-12.848181-38.544542-10.278545-7.708908 1.284818-28.265997 8.993726-66.810539 61.671268-2.569636 2.569636-2.569636 3.854454-3.854454 5.139272l-2.569637 2.569636-109.209535 24.411543h-2.569636c-1.284818 0-5.139272-1.284818-11.563363-3.854454-14.132999-3.854454-38.544542-11.563363-62.956085-17.987453-15.417817-3.854454-41.114178-34.690088-41.114179-44.968632 0-17.987453 10.278545-23.126725 23.126726-29.550816 2.569636-1.284818 6.42409-2.569636 8.993726-5.139272 3.854454-2.569636 8.993726-3.854454 14.132999-5.139272 17.987453-6.42409 43.683814-15.417817 53.962359-38.544542 6.42409-14.132999 5.139272-24.411543 2.569636-28.265998-3.854454-3.854454-15.417817-5.139272-38.544542 3.854454-10.278545 3.854454-33.40527 11.563363-61.671267 20.557089-35.974906 11.563363-80.943538 25.696361-107.924718 35.974906-6.42409 6.42409-14.132999 15.417817-21.841907 24.411544-12.848181 15.417817-25.696361 30.835634-37.259724 39.82936l-3.854454 2.569636h-41.114179v138.760351z" fill="#2A5082" p-id="4263"></path><path d="M600.010038 389.299875c0-33.40527-26.981179-61.671267-61.671268-61.671268-33.40527 0-61.671267 26.981179-61.671267 61.671268 0 33.40527 26.981179 61.671267 61.671267 61.671267 34.690088-1.284818 61.671267-28.265997 61.671268-61.671267z" fill="#A3D4FF" p-id="4264"></path><path d="M538.33877 462.534504c-41.114178 0-74.519448-33.40527-74.519448-74.519448 0-41.114178 33.40527-74.519448 74.519448-74.519447 41.114178 0 74.519448 33.40527 74.519448 74.519447 0 41.114178-33.40527 74.519448-74.519448 74.519448z m0-122.057716c-26.981179 0-48.823087 21.841907-48.823086 48.823087 0 26.981179 21.841907 48.823087 48.823086 48.823086 26.981179 0 48.823087-21.841907 48.823087-48.823086 0-26.981179-21.841907-48.823087-48.823087-48.823087z" fill="#2A5082" p-id="4265"></path><path d="M795.302384 259.53325c0-33.40527-26.981179-61.671267-61.671267-61.671268s-61.671267 26.981179-61.671268 61.671268c0 33.40527 26.981179 61.671267 61.671268 61.671267s61.671267-28.265997 61.671267-61.671267z" fill="#A3D4FF" p-id="4266"></path><path d="M734.915935 332.76788c-41.114178 0-74.519448-33.40527-74.519448-74.519448 0-41.114178 33.40527-74.519448 74.519448-74.519448 41.114178 0 74.519448 33.40527 74.519448 74.519448-1.284818 41.114178-34.690088 74.519448-74.519448 74.519448z m0-122.057717c-26.981179 0-48.823087 21.841907-48.823087 48.823087 0 26.981179 21.841907 48.823087 48.823087 48.823086 26.981179 0 48.823087-21.841907 48.823086-48.823086-1.284818-26.981179-23.126725-48.823087-48.823086-48.823087z" fill="#2A5082" p-id="4267"></path><path d="M711.78921 508.787955m-61.671268 0a61.671267 61.671267 0 1 0 123.342535 0 61.671267 61.671267 0 1 0-123.342535 0Z" fill="#A3D4FF" p-id="4268"></path><path d="M711.78921 583.307403c-41.114178 0-74.519448-33.40527-74.519448-74.519448 0-41.114178 33.40527-74.519448 74.519448-74.519448 41.114178 0 74.519448 33.40527 74.519447 74.519448 0 41.114178-33.40527 74.519448-74.519447 74.519448z m0-123.342535c-26.981179 0-48.823087 21.841907-48.823087 48.823087 0 26.981179 21.841907 48.823087 48.823087 48.823086 26.981179 0 48.823087-21.841907 48.823086-48.823086 0-26.981179-21.841907-48.823087-48.823086-48.823087z" fill="#2A5082" p-id="4269"></path><path d="M143.899624 601.294856h128.481806v269.811794h-128.481806z" fill="#A3D4FF" p-id="4270"></path><path d="M285.229611 883.954831h-154.178168v-295.508156h154.178168v295.508156z m-128.481807-25.696362h102.785446v-244.115433h-102.785446v244.115433z" fill="#2A5082" p-id="4271"></path><path d="M195.292346 652.687578h25.696362v38.544542h-25.696362zM529.345044 267.242158h25.696361v102.785446h-25.696361zM529.345044 215.849435h25.696361v25.696362h-25.696361z" fill="#2A5082" p-id="4272"></path><path d="M850.549561 203.001255h25.696361v192.72271h-25.696361z" fill="#BCC0C4" p-id="4273"></path></svg>