<?xml version="1.0" standalone="no"?><!DOCTYPE svg PUBLIC "-//W3C//DTD SVG 1.1//EN" "http://www.w3.org/Graphics/SVG/1.1/DTD/svg11.dtd"><svg t="1574321578484" class="icon" viewBox="0 0 1211 1024" version="1.1" xmlns="http://www.w3.org/2000/svg" p-id="4098" xmlns:xlink="http://www.w3.org/1999/xlink" width="75.6875" height="64"><defs><style type="text/css"></style></defs><path d="M563.2 568.32m-360.106667 0a360.106667 360.106667 0 1 0 720.213334 0 360.106667 360.106667 0 1 0-720.213334 0Z" fill="#E9EAEB" p-id="4099"></path><path d="M430.08 40.96h1.706667-1.706667z m0 0c-22.186667 0-39.253333 18.773333-39.253333 40.96v740.693333h80.213333V81.92c0-22.186667-18.773333-39.253333-40.96-40.96z" fill="#FFFFFF" p-id="4100"></path><path d="M488.106667 839.68h-114.346667V81.92c0-32.426667 25.6-58.026667 58.026667-58.026667 17.066667 0 34.133333 8.533333 44.373333 22.186667L448.853333 68.266667c-5.12-6.826667-10.24-8.533333-17.066666-8.533334-13.653333 0-23.893333 10.24-23.893334 23.893334v723.626666h46.08V136.533333h34.133334v703.146667z" fill="#2A5082" p-id="4101"></path><path d="M247.466667 805.546667h525.653333v34.133333H247.466667z" fill="#2A5082" p-id="4102"></path><path d="M954.026667 401.066667s81.92-100.693333 105.813333-168.96c-107.52 30.72-327.68 18.773333-351.573333 0v302.08c40.96 59.733333 296.96 34.133333 382.293333-15.36-66.56-47.786667-136.533333-117.76-136.533333-117.76z" fill="#A3D4FF" p-id="4103"></path><path d="M841.386667 587.093333c-66.56 0-124.586667-11.946667-145.066667-40.96l-3.413333-5.12v-85.333333h34.133333V529.066667c37.546667 37.546667 233.813333 29.013333 332.8-13.653334-59.733333-46.08-114.346667-100.693333-117.76-102.4l-11.946667-10.24 10.24-11.946666s59.733333-71.68 90.453334-133.12c-92.16 17.066667-240.64 13.653333-305.493334 0v88.746666h-34.133333v-146.773333l27.306667 22.186667c23.893333 13.653333 232.106667 27.306667 336.213333-3.413334l30.72-8.533333-8.533333 29.013333c-20.48 56.32-76.8 133.12-98.986667 162.133334 22.186667 20.48 75.093333 69.973333 124.586667 105.813333l20.48 15.36-22.186667 13.653333c-49.493333 27.306667-163.84 51.2-259.413333 51.2z" fill="#2A5082" p-id="4104"></path><path d="M790.186667 168.96l-80.213334 47.786667v303.786666l15.36 15.36 80.213334-80.213333V201.386667z" fill="#E9EAEB" p-id="4105"></path><path d="M725.333333 559.786667l-32.426666-32.426667v-71.68h34.133333v54.613333l61.44-61.44V204.8l-6.826667-11.946667-63.146666 39.253334-18.773334-29.013334 97.28-58.026666 25.6 51.2v266.24z" fill="#2A5082" p-id="4106"></path><path d="M805.546667 139.946667C727.04 78.506667 452.266667 75.093333 390.826667 136.533333v303.786667c88.746667-37.546667 276.48-51.2 397.653333 0h17.066667V139.946667z" fill="#A3D4FF" p-id="4107"></path><path d="M373.76 465.92V129.706667l5.12-5.12c68.266667-68.266667 349.866667-66.56 436.906667 1.706666l6.826666 5.12v325.973334H785.066667l-3.413334-1.706667c-119.466667-51.2-303.786667-34.133333-384 0l-23.893333 10.24z m218.453333-76.8c68.266667 0 139.946667 10.24 196.266667 32.426667v-273.066667c-78.506667-51.2-317.44-52.906667-380.586667-5.12v271.36c49.493333-15.36 116.053333-25.6 184.32-25.6z" fill="#2A5082" p-id="4108"></path><path d="M453.973333 136.533333h34.133334v238.933334h-34.133334zM805.546667 805.546667h63.146666v34.133333h-63.146666zM901.12 805.546667h32.426667v34.133333h-32.426667zM182.613333 805.546667h32.426667v34.133333h-32.426667z" fill="#2A5082" p-id="4109"></path><path d="M534.186667 822.613333H325.973333v-46.08c0-18.773333 15.36-34.133333 34.133334-34.133333h138.24c18.773333 0 34.133333 15.36 34.133333 34.133333v46.08z" fill="#FFFFFF" p-id="4110"></path><path d="M551.253333 839.68H308.906667v-63.146667c0-29.013333 22.186667-51.2 51.2-51.2h138.24c29.013333 0 51.2 22.186667 51.2 51.2v63.146667z m-208.213333-34.133333h172.373333v-29.013334c0-10.24-6.826667-17.066667-17.066666-17.066666h-138.24c-10.24 0-17.066667 6.826667-17.066667 17.066666v29.013334zM501.76 885.76h206.506667v34.133333H501.76zM295.253333 965.973333h303.786667v34.133334H295.253333zM119.466667 885.76h256v34.133333H119.466667z" fill="#2A5082" p-id="4111"></path></svg>