<?xml version="1.0" standalone="no"?><!DOCTYPE svg PUBLIC "-//W3C//DTD SVG 1.1//EN" "http://www.w3.org/Graphics/SVG/1.1/DTD/svg11.dtd"><svg t="1574066711624" class="icon" viewBox="0 0 1211 1024" version="1.1" xmlns="http://www.w3.org/2000/svg" p-id="4510" xmlns:xlink="http://www.w3.org/1999/xlink" width="75.6875" height="64"><defs><style type="text/css"></style></defs><path d="M629.76 1015.466667C385.706667 1015.466667 167.253333 870.4 71.68 645.12L102.4 631.466667c90.453333 211.626667 296.96 349.866667 527.36 349.866666 184.32 0 358.4-90.453333 465.92-240.64l27.306667 20.48c-112.64 158.72-296.96 254.293333-493.226667 254.293334z" fill="#2A5082" p-id="4511"></path><path d="M631.466667 25.6c-226.986667 0-409.6 182.613333-409.6 409.6 0 100.693333 37.546667 194.56 97.28 264.533333l35.84-64.853333h34.133333l34.133333-51.2 34.133334-17.066667 85.333333 119.466667h51.2l63.146667 97.28 97.28-165.546667 54.613333 35.84 68.266667 107.52c98.986667-75.093333 162.133333-192.853333 162.133333-325.973333 1.706667-226.986667-180.906667-409.6-407.893333-409.6z" fill="#E9EAEB" p-id="4512"></path><path d="M955.733333 834.56l-29.013333-44.373333h-51.2L798.72 665.6l-37.546667-23.893333-88.746666 150.186666-29.013334-17.066666 105.813334-180.906667 73.386666 47.786667 71.68 114.346666h51.2l39.253334 58.026667z" fill="#2A5082" p-id="4513"></path><path d="M733.866667 933.546667l-148.48-230.4h-49.493334l-81.92-114.346667-17.066666 8.533333-37.546667 54.613334h-32.426667l-80.213333 145.066666-30.72-17.066666 90.453333-162.133334h34.133334l32.426666-47.786666 51.2-25.6 88.746667 124.586666h51.2l158.72 247.466667z" fill="#2A5082" p-id="4514"></path><path d="M459.093333 225.28h221.866667v136.533333h-221.866667z" fill="#A3D4FF" p-id="4515" data-spm-anchor-id="a313x.7781069.0.i9" class="selected"></path><path d="M698.026667 378.88h-256v-170.666667h256v170.666667z m-221.866667-34.133333h187.733333v-102.4h-187.733333v102.4z" fill="#2A5082" p-id="4516"></path><path d="M834.56 430.08h-221.866667v-136.533333h221.866667l-51.2 68.266666z" fill="#A3D4FF" p-id="4517"></path><path d="M868.693333 447.146667h-273.066666v-170.666667h273.066666l-64.853333 85.333333 64.853333 85.333334z m-238.933333-34.133334h170.666667l-39.253334-51.2 39.253334-51.2h-170.666667v102.4zM442.026667 174.08h34.133333v397.653333h-34.133333z" fill="#2A5082" p-id="4518"></path><path d="M254.293333 498.346667h-34.133333c0-29.013333-29.013333-51.2-68.266667-51.2v-34.133334c35.84 0 66.56 13.653333 85.333334 37.546667 18.773333-22.186667 49.493333-37.546667 85.333333-37.546667v34.133334c-39.253333 0-68.266667 22.186667-68.266667 51.2zM851.626667 157.013333h-34.133334c0-29.013333-29.013333-51.2-68.266666-51.2v-34.133333c35.84 0 66.56 13.653333 85.333333 37.546667 18.773333-22.186667 49.493333-37.546667 85.333333-37.546667v34.133333c-39.253333 0-68.266667 22.186667-68.266666 51.2zM1056.426667 566.613333h-34.133334c0-29.013333-29.013333-51.2-68.266666-51.2v-34.133333c35.84 0 66.56 13.653333 85.333333 37.546667 18.773333-22.186667 49.493333-37.546667 85.333333-37.546667v34.133333c-39.253333 0-68.266667 22.186667-68.266666 51.2z" fill="#BCC0C4" p-id="4519"></path></svg>