<?xml version="1.0" standalone="no"?><!DOCTYPE svg PUBLIC "-//W3C//DTD SVG 1.1//EN" "http://www.w3.org/Graphics/SVG/1.1/DTD/svg11.dtd"><svg t="1574069106562" class="icon" viewBox="0 0 1083 1024" version="1.1" xmlns="http://www.w3.org/2000/svg" p-id="4665" xmlns:xlink="http://www.w3.org/1999/xlink" width="67.6875" height="64"><defs><style type="text/css"></style></defs><path d="M412.46358 735.062124a237.449275 237.449275 0 1 0 276.7256-385.942451 237.449275 237.449275 0 1 0-276.7256 385.942451Z" fill="#E9EAEB" p-id="4666"></path><path d="M371.014493 660.405797m-267.130435 0a267.130435 267.130435 0 1 0 534.26087 0 267.130435 267.130435 0 1 0-534.26087 0Z" fill="#A3D4FF" p-id="4667"></path><path d="M371.014493 942.376812c-155.826087 0-281.971014-126.144928-281.971015-281.971015s126.144928-281.971014 281.971015-281.971014c114.272464 0 215.188406 68.266667 259.710145 172.150724l-26.713044 11.872464C563.942029 468.962319 473.414493 408.115942 371.014493 408.115942c-139.501449 0-252.289855 112.788406-252.289855 252.289855s112.788406 252.289855 252.289855 252.289855 252.289855-112.788406 252.289855-252.289855h29.681159c0 155.826087-126.144928 281.971014-281.971014 281.971015z" fill="#2A5082" p-id="4668"></path><path d="M338.365217 552.069565c-25.228986-28.197101-43.037681-59.362319-56.394203-93.495652l28.197102-10.388406c10.388406 31.165217 28.197101 59.362319 50.457971 84.591305l-22.26087 19.292753zM470.446377 635.176812c-34.133333-10.388406-65.298551-25.228986-93.495652-47.489855l17.808695-23.744928c25.228986 19.292754 53.426087 34.133333 84.591305 43.037681l-8.904348 28.197102zM549.101449 645.565217c-10.388406 0-20.776812 0-31.165217-1.484058l2.968116-29.681159c8.904348 1.484058 19.292754 1.484058 28.197101 1.484058 40.069565 0 77.171014-8.904348 112.788406-26.713044l13.356522 26.713044c-40.069565 19.292754-81.623188 29.681159-126.144928 29.681159zM721.252174 586.202899L703.443478 563.942029c34.133333-26.713043 60.846377-62.330435 78.655073-100.915942l26.713043 11.872464c-19.292754 43.037681-48.973913 81.623188-87.55942 111.304348zM823.652174 425.924638l-29.68116-5.936232c4.452174-17.808696 5.936232-37.101449 5.936232-56.394203s-1.484058-37.101449-5.936232-56.394203l29.68116-5.936232c4.452174 20.776812 7.42029 41.553623 7.42029 62.330435 0 20.776812-2.968116 41.553623-7.42029 62.330435zM788.034783 280.486957c-11.872464-34.133333-31.165217-65.298551-56.394203-92.011595l20.776811-20.776811c28.197101 29.681159 48.973913 63.814493 62.330435 102.4l-26.713043 10.388406zM703.443478 163.246377c-29.681159-22.26087-62.330435-38.585507-97.947826-46.005797l5.936232-28.197102c40.069565 8.904348 77.171014 26.713043 109.82029 51.942029L703.443478 163.246377zM464.510145 126.144928l-10.388406-28.197102c40.069565-14.84058 83.107246-19.292754 124.66087-14.84058l-2.968116 29.68116c-37.101449-4.452174-75.686957 0-111.304348 13.356522zM339.849275 224.092754L314.62029 207.768116c23.744928-35.617391 56.394203-65.298551 93.495652-87.55942l14.84058 25.228985c-32.649275 19.292754-62.330435 46.005797-83.107247 78.655073zM296.811594 363.594203h-29.681159c0-38.585507 7.42029-74.202899 22.260869-109.82029l26.713044 11.872464c-13.356522 31.165217-19.292754 63.814493-19.292754 97.947826z" fill="#2A5082" p-id="4669"></path><path d="M712.347826 942.376812c-155.826087 0-281.971014-126.144928-281.971014-281.971015h29.681159c0 139.501449 112.788406 252.289855 252.289855 252.289855s252.289855-112.788406 252.289855-252.289855c0-84.591304-41.553623-163.246377-112.788406-209.252174l16.324638-25.228985c78.655072 51.942029 124.66087 139.501449 124.66087 234.481159 1.484058 155.826087-124.66087 281.971014-280.486957 281.971015zM586.202899 442.249275l-14.84058-25.228985c60.846377-35.617391 135.049275-46.005797 203.315942-31.165218l-5.936232 29.68116c-60.846377-14.84058-127.628986-4.452174-182.53913 26.713043zM479.350725 562.457971l-26.713044-11.872464c11.872464-28.197101 28.197101-54.910145 48.973913-78.655072l22.26087 19.292753c-17.808696 22.26087-32.649275 46.005797-44.521739 71.234783zM371.014493 883.014493c-123.176812 0-222.608696-99.431884-222.608696-222.608696h29.68116c0 106.852174 86.075362 192.927536 192.927536 192.927536v29.68116z" fill="#2A5082" p-id="4670"></path></svg>