<?xml version="1.0" standalone="no"?><!DOCTYPE svg PUBLIC "-//W3C//DTD SVG 1.1//EN" "http://www.w3.org/Graphics/SVG/1.1/DTD/svg11.dtd"><svg t="1574321507294" class="icon" viewBox="0 0 1211 1024" version="1.1" xmlns="http://www.w3.org/2000/svg" p-id="9656" xmlns:xlink="http://www.w3.org/1999/xlink" width="75.6875" height="64"><defs><style type="text/css"></style></defs><path d="M848.213333 523.946667m-235.52 0a235.52 235.52 0 1 0 471.04 0 235.52 235.52 0 1 0-471.04 0Z" fill="#E9EAEB" p-id="9657"></path><path d="M128 382.293333v375.466667c0 51.2 42.666667 93.866667 93.866667 93.866667h626.346666V382.293333H128z" fill="#FFFFFF" p-id="9658"></path><path d="M865.28 870.4H442.026667v-34.133333h390.826666V399.36H145.066667v358.4c0 20.48 8.533333 39.253333 22.186666 54.613333 15.36 15.36 34.133333 22.186667 54.613334 22.186667h124.586666v34.133333H221.866667c-29.013333 0-58.026667-11.946667-78.506667-32.426666-20.48-20.48-32.426667-49.493333-32.426667-78.506667v-392.533333h754.346667V870.4z" fill="#2A5082" p-id="9659"></path><path d="M128 757.76c0-47.786667 42.666667-93.866667 93.866667-93.866667v-375.466666c-51.2 0-93.866667 46.08-93.866667 93.866666v375.466667z" fill="#E9EAEB" p-id="9660"></path><path d="M145.066667 757.76h-34.133334v-375.466667c0-59.733333 51.2-110.933333 110.933334-110.933333h17.066666v409.6h-17.066666c-40.96 0-76.8 35.84-76.8 76.8zM204.8 307.2c-34.133333 8.533333-59.733333 39.253333-59.733333 75.093333v296.96c17.066667-15.36 37.546667-27.306667 59.733333-30.72V307.2z" fill="#2A5082" p-id="9661"></path><path d="M508.586667 32.426667c-105.813333 13.653333-184.32 112.64-177.493334 221.866666 10.24 151.893333 186.026667 203.093333 192.853334 395.946667 0 6.826667 5.12 11.946667 11.946666 11.946667 6.826667 0 10.24-5.12 11.946667-11.946667 5.12-197.973333 191.146667-247.466667 191.146667-411.306667 0-122.88-105.813333-223.573333-230.4-206.506666z" fill="#A3D4FF" p-id="9662"></path><path d="M535.893333 679.253333c-15.36 0-27.306667-11.946667-29.013333-27.306666-3.413333-97.28-52.906667-158.72-100.693333-216.746667-42.666667-51.2-85.333333-104.106667-92.16-179.2C305.493333 138.24 392.533333 30.72 506.88 15.36 570.026667 6.826667 631.466667 25.6 679.253333 68.266667c49.493333 42.666667 76.8 105.813333 76.8 172.373333 0 83.626667-46.08 141.653333-92.16 196.266667-47.786667 58.026667-97.28 117.76-100.693333 216.746666 0 13.653333-13.653333 25.6-27.306667 25.6z m0-631.466666c-8.533333 0-17.066667 0-23.893333 1.706666-97.28 11.946667-168.96 104.106667-162.133333 204.8 5.12 64.853333 42.666667 110.933333 83.626666 160.426667 40.96 49.493333 87.04 104.106667 102.4 186.026667 15.36-80.213333 61.44-134.826667 102.4-186.026667 46.08-54.613333 83.626667-102.4 83.626667-174.08 0-56.32-23.893333-109.226667-64.853333-146.773333-34.133333-30.72-76.8-46.08-121.173334-46.08zM1022.293333 554.666667h-34.133333V303.786667c0-42.666667-34.133333-76.8-76.8-76.8H802.133333v-34.133334h109.226667c61.44 0 110.933333 49.493333 110.933333 110.933334v250.88z" fill="#2A5082" p-id="9663"></path><path d="M1005.226667 578.56l-90.453334-90.453333 23.893334-23.893334 66.56 66.56 66.56-66.56 23.893333 23.893334zM1022.293333 1010.346667H832.853333v-34.133334h155.306667V790.186667h34.133333zM738.986667 1010.346667H488.106667c-61.44 0-110.933333-49.493333-110.933334-110.933334V633.173333h34.133334v266.24c0 42.666667 34.133333 76.8 76.8 76.8h250.88v34.133334z" fill="#2A5082" p-id="9664"></path><path d="M460.8 723.626667l-66.56-66.56-66.56 66.56-23.893333-23.893334 90.453333-90.453333 90.453333 90.453333zM988.16 602.453333h34.133333v30.72h-34.133333zM988.16 663.893333h34.133333v30.72h-34.133333zM988.16 727.04h34.133333v30.72h-34.133333z" fill="#2A5082" p-id="9665"></path><path d="M597.333333 242.346667c0 35.84-27.306667 63.146667-63.146666 63.146666-34.133333 0-63.146667-29.013333-63.146667-63.146666s27.306667-63.146667 63.146667-63.146667 63.146667 27.306667 63.146666 63.146667z" fill="#FFFFFF" p-id="9666"></path><path d="M535.893333 322.56c-44.373333 0-80.213333-35.84-80.213333-80.213333s35.84-80.213333 80.213333-80.213334 80.213333 35.84 80.213334 80.213334-37.546667 80.213333-80.213334 80.213333z m0-126.293333c-25.6 0-46.08 20.48-46.08 46.08s20.48 46.08 46.08 46.08 46.08-20.48 46.08-46.08-22.186667-46.08-46.08-46.08zM769.706667 976.213333h30.72v34.133334h-30.72z" fill="#2A5082" p-id="9667"></path></svg>